# xmcd CD database file
#
# Track frame offsets:
#	150
#	23917
#	42146
#	60443
#	79936
#	96550
#	115366
#	131272
#	148571
#	163634
#	182201
#	199505
#	220959
#	237180
#
# Disc length: 3371 seconds
#
# Revision: 0
# Processed by: cddbd v1.5.1PL0 Copyright (c) Steve Scherf et al.
# Submitted via: CDex 1.50beta10
#
DISCID=c10d290e
DTITLE=Plug N Pray - God is groovin
DYEAR=2004
DGENRE=Jazz
TTITLE0=God is groovin
TTITLE1=All that I do
TTITLE2=Never going back
TTITLE3=Walking
TTITLE4=Talking to you
TTITLE5=Knock on my door
TTITLE6=No life without you
TTITLE7=Eyes fixed on you
TTITLE8=Pick me up
TTITLE9=Just enough light
TTITLE10=Count on you
TTITLE11=You set me free
TTITLE12=Show Me
TTITLE13=I wanna go to heaven
EXTD=YEAR: 2004
EXTT0=
EXTT1=
EXTT2=
EXTT3=
EXTT4=
EXTT5=
EXTT6=
EXTT7=
EXTT8=
EXTT9=
EXTT10=
EXTT11=
EXTT12=
EXTT13=
PLAYORDER=
